<svg width="24" height="32" viewBox="0 0 24 32" fill="none" xmlns="http://www.w3.org/2000/svg">
<path fill-rule="evenodd" clip-rule="evenodd" d="M22.4907 0C23.1802 0 23.7637 0.58307 23.7637 1.27215V19.0823C23.7637 19.5063 23.5515 19.8774 23.2863 20.0894C23.0211 20.8845 23.0211 23.2168 23.2863 24.0649C23.5515 24.2769 23.7637 24.6479 23.7637 25.019V25.8671C23.7637 26.6092 23.1802 27.1392 22.4907 27.1392H11.8819V32L8.9114 29.2827L5.94094 32V27.1392H5.09222C2.28089 27.1392 0 24.86 0 22.0506V5.08861C0 2.27927 2.28089 0 5.09222 0H22.4907ZM11.8819 23.7468H20.2098C20.1037 22.8457 20.1037 21.3085 20.2098 20.3544H11.8376C11.8662 20.4765 11.8819 20.6073 11.8819 20.7426V23.7468ZM5.98349 20.3544C5.95588 20.4765 5.94094 20.6073 5.94094 20.7426V23.7468H5.09222C4.13743 23.7468 3.39482 23.0047 3.39482 22.0506C3.39482 21.1495 4.13743 20.3544 5.09222 20.3544H5.98349ZM13.9803 6.51477C14.8312 6.51477 15.5274 7.2173 15.5274 8.07595C15.5274 8.77848 15.0826 9.36392 14.4638 9.55907C14.4638 10.1055 14.3284 10.5543 14.0577 10.8861C13.4968 11.5691 12.5879 11.6667 11.7563 11.7447C11.2729 11.7838 10.7894 11.8228 10.48 11.9789C10.3446 12.057 10.2479 12.1545 10.1899 12.2521C10.7701 12.4668 11.1955 13.0327 11.1955 13.6962C11.1955 14.5744 10.4993 15.2574 9.64839 15.2574C8.77814 15.2574 8.10128 14.5744 8.10128 13.6962C8.10128 13.0132 8.54607 12.4082 9.18426 12.2131V8.32964C8.54607 8.13449 8.10128 7.52954 8.10128 6.827C8.10128 5.96835 8.77814 5.26582 9.64839 5.26582C10.4993 5.26582 11.1955 5.96835 11.1955 6.827C11.1955 7.52954 10.7314 8.13449 10.1125 8.32964V11.1398C10.5573 10.9056 11.1375 10.847 11.679 10.808C12.3752 10.7495 13.0327 10.6714 13.3228 10.3006C13.4582 10.1445 13.5162 9.89082 13.5355 9.57859C12.8973 9.40295 12.4332 8.798 12.4332 8.07595C12.4332 7.2173 13.1101 6.51477 13.9803 6.51477ZM9.95782 6.827C9.95782 6.67089 9.80311 6.51477 9.64839 6.51477C9.47434 6.51477 9.33897 6.67089 9.33897 6.827C9.33897 7.00264 9.47434 7.13924 9.64839 7.13924C9.80311 7.13924 9.95782 7.00264 9.95782 6.827ZM9.33897 13.6962C9.33897 13.8718 9.47434 14.0084 9.64839 14.0084C9.80311 14.0084 9.95782 13.8718 9.95782 13.6962C9.95782 13.5401 9.80311 13.384 9.64839 13.384C9.47434 13.384 9.33897 13.5401 9.33897 13.6962ZM14.2897 8.07595C14.2897 7.91983 14.135 7.76371 13.9803 7.76371C13.8063 7.76371 13.6709 7.91983 13.6709 8.07595C13.6709 8.25158 13.8063 8.38819 13.9803 8.38819C14.135 8.38819 14.2897 8.25158 14.2897 8.07595Z" fill="#17191A"/>
</svg>
