<svg width="251" height="356" viewBox="0 0 251 356" fill="none" xmlns="http://www.w3.org/2000/svg">
<path d="M83 292H19V356H83V292Z" fill="#F7DF1E"/>
<path d="M61.9918 342C63.2809 344.105 64.9581 345.652 67.9245 345.652C70.4164 345.652 72.0083 344.407 72.0083 342.686C72.0083 340.624 70.3727 339.893 67.6299 338.694L66.1264 338.049C61.7866 336.2 58.9035 333.883 58.9035 328.987C58.9035 324.476 62.3402 321.043 67.7111 321.043C71.5349 321.043 74.2838 322.374 76.2648 325.858L71.5816 328.865C70.5505 327.016 69.4381 326.288 67.7111 326.288C65.9496 326.288 64.8332 327.405 64.8332 328.865C64.8332 330.669 65.9506 331.4 68.5309 332.517L70.0344 333.161C75.1443 335.352 78.0294 337.586 78.0294 342.609C78.0294 348.023 73.7759 350.99 68.0636 350.99C62.4784 350.99 58.87 348.328 57.1044 344.84L61.9918 342ZM40.7468 342.521C41.6916 344.198 42.551 345.615 44.6173 345.615C46.5932 345.615 47.8396 344.842 47.8396 341.836V321.386H53.8536V341.917C53.8536 348.144 50.2026 350.979 44.8733 350.979C40.058 350.979 37.2695 348.487 35.8513 345.485L40.7468 342.521Z" fill="black"/>
<path d="M83.5147 22.1725C83.5147 20.9317 83.2503 19.8129 82.701 18.8771C82.1722 17.9414 81.3788 17.1685 80.3211 16.5582C71.5334 11.4931 62.7254 6.42802 53.9378 1.36287C51.5578 -4.49081e-05 49.2795 0.0406558 46.9198 1.42388C43.421 3.47845 25.8864 13.5273 20.6789 16.5582C18.5226 17.799 17.4852 19.7112 17.4852 22.1929V52.7869C17.4852 54.0074 17.7497 55.0855 18.2582 56.0213C18.7871 56.9774 19.6008 57.7911 20.6789 58.4216C25.9068 61.4526 43.421 71.4811 46.9198 73.556C49.2795 74.9389 51.5781 74.9999 53.9378 73.617C62.7254 68.5315 71.5334 63.4868 80.3211 58.4216C81.4195 57.7911 82.2129 56.9977 82.7417 56.0213C83.2503 55.0855 83.5147 54.0074 83.5147 52.7869V22.1725Z" fill="#9A4993"/>
<path d="M50.5814 37.3679L18.2175 56.001C18.7464 56.9571 19.5601 57.7708 20.6382 58.4014C25.8661 61.4323 43.3803 71.4608 46.8791 73.5357C49.2387 74.919 51.5374 74.98 53.8971 73.5967C62.6847 68.5112 71.4927 63.4665 80.2804 58.4014C81.3788 57.7708 82.1722 56.9775 82.701 56.001L50.5814 37.3679Z" fill="#6A1577"/>
<path d="M41.0003 42.8805C42.8922 46.1759 46.4316 48.3932 50.4796 48.3932C54.5683 48.3932 58.1281 46.1556 59.9996 42.8195L50.5813 37.3679L41.0003 42.8805Z" fill="#6A1577"/>
<path d="M83.5148 22.1725C83.5148 20.9317 83.2503 19.8129 82.7011 18.8771L50.5814 37.3679L82.7417 56.001C83.2503 55.0652 83.5148 53.9872 83.5148 52.7666V22.1725Z" fill="#813084"/>
<path d="M59.9996 42.8195C58.1282 46.1352 54.5684 48.3932 50.4796 48.3932C46.4113 48.3932 42.8719 46.1759 41.0004 42.8805C40.085 41.2736 39.5561 39.4428 39.5561 37.4697C39.5561 31.4281 44.4381 26.5461 50.4796 26.5461C54.5073 26.5461 58.0265 28.743 59.9183 31.9977L69.4585 26.5054C65.6547 19.9554 58.5757 15.5412 50.4593 15.5412C38.3356 15.5412 28.5309 25.3663 28.5309 37.4697C28.5309 41.4363 29.5886 45.1792 31.4398 48.3932C35.2233 54.9636 42.3429 59.3981 50.4796 59.3981C58.6368 59.3981 65.7564 54.9433 69.5399 48.3322L59.9996 42.8195ZM72.0623 32.2825H69.8857V42.7992H72.0623V32.2825ZM76.8833 32.2825H74.7067V42.7992H76.8833V32.2825Z" fill="white"/>
<path d="M78.6531 34.0522H68.1363V36.2288H78.6531V34.0522ZM78.6531 38.8529H68.1363V41.0295H78.6531V38.8529Z" fill="white"/>
<path d="M34.8389 171.933C38.4539 183.251 39.8235 203.441 50.3945 203.441C51.1994 203.441 52.0125 203.36 52.8287 203.201C43.2192 200.907 42.0803 180.937 36.2165 170.596C35.7567 171.023 35.3002 171.469 34.8389 171.933Z" fill="url(#paint0_linear_20:10)"/>
<path d="M36.2164 170.596C42.0802 180.937 43.2191 200.907 52.8287 203.201C53.5836 203.059 54.3402 202.844 55.0984 202.574C46.4729 198.247 44.0886 178.855 37.4295 169.519C37.0262 169.862 36.6213 170.223 36.2164 170.596Z" fill="url(#paint1_linear_20:10)"/>
<path d="M44.6652 164.445C43.8618 164.445 43.0471 164.526 42.2293 164.685C40.0903 165.098 37.9175 166.041 35.7268 167.468C36.3252 168.072 36.8946 168.764 37.4302 169.519C39.658 167.626 41.8712 166.227 44.0764 165.387C44.9039 165.073 45.7283 164.837 46.5558 164.682C45.9589 164.526 45.3298 164.445 44.6652 164.445Z" fill="#14559A"/>
<path d="M61.8318 198.585C62.7141 197.867 63.5982 197.072 64.4838 196.205C60.8106 184.941 59.4959 164.462 48.8507 164.462C48.0893 164.462 47.3214 164.535 46.5552 164.68C56.2518 167.149 57.494 188.747 61.8318 198.585Z" fill="url(#paint2_linear_20:10)"/>
<path d="M46.5554 164.681C45.9585 164.526 45.3294 164.445 44.6648 164.445L48.851 164.46C48.0895 164.46 47.3217 164.533 46.5554 164.68" fill="#3092C4"/>
<path d="M61.6457 200.978C61.2295 200.572 60.8344 200.126 60.4455 199.65C58.6549 200.948 56.8708 201.933 55.098 202.574C55.7287 202.889 56.3901 203.124 57.0919 203.269C57.6354 203.383 58.1985 203.441 58.7904 203.441C60.7795 203.441 62.3523 203.2 63.6912 202.542C62.954 202.134 62.2781 201.606 61.6457 200.978Z" fill="#1969BC"/>
<path d="M44.0757 165.389C52.7609 170.039 53.5158 191.099 60.4459 199.65C60.9105 199.315 61.3702 198.96 61.83 198.585C57.4922 188.747 56.2517 167.147 46.5567 164.68C45.7292 164.839 44.9032 165.073 44.0757 165.389Z" fill="url(#paint3_linear_20:10)"/>
<path d="M37.4296 169.519C44.0887 178.855 46.4729 198.247 55.0984 202.574C56.8713 201.933 58.6555 200.948 60.446 199.65C53.5159 191.099 52.761 170.039 44.0757 165.389C41.8706 166.227 39.6573 167.626 37.4296 169.519Z" fill="url(#paint4_linear_20:10)"/>
<path d="M30.5783 171.661C29.5346 174.077 28.4684 177.253 27.1794 181.398C29.7427 177.7 32.2979 174.515 34.8386 171.933C34.4886 170.832 34.1127 169.816 33.7078 168.911C32.669 169.725 31.622 170.642 30.5783 171.661Z" fill="url(#paint5_linear_20:10)"/>
<path d="M34.6334 168.214C34.3269 168.439 34.0188 168.669 33.7091 168.911C34.114 169.816 34.4882 170.832 34.8383 171.934C35.2996 171.471 35.7577 171.024 36.2158 170.596C35.7239 169.731 35.2012 168.931 34.6334 168.214Z" fill="#2B74B1"/>
<path d="M35.7268 167.468C35.3623 167.704 34.9994 167.953 34.6332 168.214C35.201 168.931 35.7236 169.73 36.2172 170.597C36.6222 170.222 37.027 169.861 37.4303 169.519C36.8947 168.764 36.3254 168.072 35.7268 167.468Z" fill="#125A9E"/>
<path d="M94.9675 163.583C90.0554 182.977 79.7958 198.554 71.1944 202.481H71.1782C71.0217 202.554 70.8668 202.62 70.7136 202.684C70.6925 202.697 70.6733 202.699 70.6571 202.707C70.6119 202.725 70.5699 202.74 70.5248 202.758C70.5037 202.771 70.4845 202.776 70.4652 202.783C70.3926 202.81 70.3216 202.832 70.2506 202.861C70.2199 202.874 70.191 202.883 70.1618 202.893C70.1295 202.906 70.0924 202.918 70.0553 202.929C70.0231 202.942 69.9893 202.951 69.9521 202.966C69.9214 202.979 69.8891 202.984 69.8602 202.998C69.7972 203.016 69.7393 203.032 69.6763 203.054C69.6504 203.054 69.6264 203.069 69.5989 203.076C69.5602 203.089 69.5165 203.098 69.4746 203.11C69.4455 203.123 69.4214 203.127 69.3907 203.134C69.3471 203.147 69.2987 203.159 69.2552 203.169C69.1971 203.183 69.1455 203.195 69.0907 203.206C69.4794 203.354 69.8843 203.428 70.3215 203.428C78.4776 203.428 86.7013 188.464 100.308 163.579H94.9656L94.9675 163.583Z" fill="url(#paint6_linear_20:10)"/>
<path d="M25.4082 165.232C25.4133 165.232 25.4197 165.219 25.4229 165.219C25.4293 165.219 25.4392 165.219 25.4424 165.206H25.4526C25.4977 165.19 25.5397 165.172 25.5848 165.155C25.5963 165.155 25.6024 165.155 25.6107 165.142C25.6222 165.142 25.6334 165.128 25.6447 165.127C25.6931 165.111 25.7415 165.092 25.7866 165.075H25.7943C25.9024 165.042 26.0024 165.001 26.1072 164.963C26.1219 164.963 26.1363 164.95 26.154 164.95C26.1976 164.936 26.2428 164.92 26.2879 164.909C26.3089 164.896 26.3298 164.896 26.3491 164.889C26.3959 164.875 26.4412 164.859 26.4847 164.848C26.5042 164.848 26.5218 164.835 26.5363 164.834C26.6863 164.791 26.8347 164.752 26.9847 164.715C27.0058 164.715 27.0235 164.702 27.046 164.7C27.0895 164.687 27.1299 164.68 27.1767 164.674C27.1962 164.661 27.2187 164.661 27.2412 164.654C27.2847 164.641 27.3267 164.64 27.3735 164.629H27.4042C27.4945 164.61 27.5865 164.594 27.6768 164.577H27.7317C27.7752 164.564 27.8139 164.563 27.8575 164.555C27.8815 164.555 27.9059 164.542 27.9285 164.542C27.9687 164.542 28.0091 164.528 28.0494 164.523C28.0705 164.523 28.0913 164.523 28.1156 164.51C28.2107 164.497 28.3092 164.491 28.4092 164.483C28.1269 164.455 27.8365 164.437 27.5413 164.437C18.356 164.437 5.70087 181.885 0 204.481H1.09856C2.92303 201.15 4.56199 197.999 6.06061 195.041C10.0532 179.036 18.185 168.121 25.4087 165.23" fill="url(#paint7_linear_20:10)"/>
<path d="M30.5784 171.661C31.6221 170.642 32.669 169.725 33.7079 168.911C33.4708 168.379 33.2256 167.887 32.9626 167.436C32.1222 168.48 31.3543 169.857 30.5784 171.661Z" fill="#0D82CA"/>
<path d="M31.333 165.365C31.933 165.88 32.4702 166.588 32.9622 167.437C33.1171 167.242 33.2736 167.062 33.4365 166.894C32.7542 166.242 32.0169 165.707 31.2168 165.304C31.2491 165.322 31.2813 165.337 31.3149 165.351C31.3149 165.351 31.3277 165.364 31.3331 165.364" fill="#0D82CA"/>
<path d="M6.06018 195.043C14.4357 178.519 18.404 168.062 25.4083 165.232C18.1862 168.125 10.0527 179.04 6.06018 195.043Z" fill="url(#paint8_linear_20:10)"/>
<path d="M33.4361 166.894C33.2732 167.064 33.1183 167.242 32.9618 167.437C33.2248 167.888 33.4699 168.378 33.7088 168.912C34.0185 168.669 34.3265 168.439 34.6331 168.215C34.254 167.736 33.8539 167.292 33.4361 166.894Z" fill="#127BCA"/>
<path d="M9.86242 204.408C9.8108 204.422 9.75918 204.422 9.71079 204.427H9.68174C9.63812 204.427 9.59295 204.44 9.55269 204.44H9.53166C9.42687 204.453 9.32356 204.453 9.22355 204.461H9.19128C17.6684 204.219 21.5432 199.873 23.4661 193.571C24.9276 188.794 26.1278 184.769 27.1796 181.392C23.629 186.508 20.0623 192.607 16.4763 199.439C14.747 202.732 12.1175 204.108 9.86236 204.402" fill="url(#paint9_linear_20:10)"/>
<path d="M9.86243 204.405C12.1176 204.111 14.747 202.737 16.4763 199.442C20.0624 192.612 23.6306 186.511 27.178 181.395C28.4685 177.248 29.5332 174.074 30.5785 171.658C23.5081 178.548 16.4102 190.004 9.86243 204.402" fill="url(#paint10_linear_20:10)"/>
<path d="M6.05981 195.043C4.56127 198.001 2.92231 201.152 1.09778 204.483H4.29348C4.71613 201.175 5.31622 198.021 6.05981 195.045" fill="#05A1E6"/>
<path d="M28.1152 164.518C28.0893 164.518 28.07 164.531 28.0474 164.531C28.0087 164.544 27.9683 164.544 27.928 164.549C27.9041 164.549 27.8813 164.549 27.8571 164.562C27.8134 164.575 27.7732 164.576 27.7312 164.584C27.7117 164.584 27.6925 164.584 27.6764 164.597C27.5844 164.613 27.4941 164.631 27.4038 164.646H27.3731C27.3264 164.659 27.2843 164.666 27.2408 164.673C27.2181 164.686 27.1956 164.686 27.1746 164.691C27.1311 164.704 27.0875 164.71 27.0456 164.718C27.0229 164.731 27.0053 164.731 26.9842 164.732C26.8342 164.769 26.6858 164.809 26.5358 164.851C26.5198 164.851 26.5035 164.864 26.4842 164.867C26.439 164.88 26.3954 164.893 26.3487 164.908C26.3292 164.921 26.3067 164.921 26.2874 164.926C26.2422 164.939 26.197 164.952 26.1535 164.967C26.1359 164.967 26.1212 164.98 26.1051 164.98C26.0018 165.02 25.9002 165.059 25.7937 165.092C25.7486 165.107 25.7002 165.125 25.6518 165.142C25.6323 165.156 25.6146 165.159 25.5922 165.168C25.547 165.182 25.5018 165.201 25.4599 165.218C25.4439 165.231 25.4276 165.232 25.4164 165.239C18.4121 168.07 14.4438 178.527 6.06828 195.05C5.32462 198.026 4.72291 201.181 4.30188 204.489H4.75033C6.01343 204.489 6.36994 204.476 7.82339 204.476H7.89759H8.11375H8.18796H8.20898H8.28319H8.32513H8.35418H8.41225H8.59292H8.7736H8.92523H8.9655H9.23167C9.33168 204.462 9.43492 204.462 9.53978 204.454H9.55914C9.60276 204.454 9.64625 204.441 9.68819 204.441H9.71878C9.76549 204.441 9.81879 204.428 9.87041 204.423C16.4182 190.025 23.516 178.568 30.5865 171.678C31.364 169.875 32.1303 168.497 32.9691 167.455C32.4787 166.607 31.9415 165.896 31.3414 165.381C31.3414 165.381 31.3251 165.381 31.3239 165.368C31.2899 165.354 31.2578 165.336 31.2239 165.319C31.1899 165.3 31.1609 165.286 31.1255 165.268C31.0948 165.255 31.0593 165.237 31.0287 165.22C30.9868 165.207 30.9529 165.188 30.9158 165.171C30.8852 165.158 30.8577 165.145 30.827 165.131C30.764 165.106 30.7012 165.08 30.6415 165.052C30.614 165.039 30.5884 165.032 30.5624 165.022C30.5189 165.006 30.4688 164.985 30.4237 164.965C30.401 164.952 30.3753 164.949 30.3495 164.94C30.2834 164.917 30.2188 164.894 30.1575 164.872H30.1415C30.0673 164.847 29.9947 164.829 29.9189 164.808C29.9013 164.795 29.8866 164.795 29.8689 164.792C29.8027 164.773 29.7447 164.755 29.6818 164.738C29.6658 164.738 29.6511 164.725 29.6383 164.725C29.4867 164.684 29.3302 164.651 29.1721 164.62C29.1558 164.62 29.1399 164.607 29.1237 164.607C29.056 164.594 28.9899 164.582 28.9221 164.574C28.9058 164.561 28.8962 164.561 28.8818 164.561C28.8012 164.548 28.7221 164.539 28.6431 164.529H28.6011C28.5366 164.516 28.477 164.515 28.4172 164.508C28.3156 164.521 28.2188 164.527 28.1236 164.536" fill="url(#paint11_linear_20:10)"/>
<path d="M75.7806 174.32C74.1691 179.605 72.864 183.965 71.7284 187.552C76.15 181.322 80.5055 173.486 84.653 164.442C79.8151 165.998 77.234 169.559 75.7806 174.32Z" fill="url(#paint12_linear_20:10)"/>
<path d="M71.8687 202.151C71.6428 202.268 71.417 202.38 71.1944 202.481C79.7957 198.554 90.0553 182.977 94.9674 163.583H93.9721C82.6865 184.222 79.0569 198.038 71.8687 202.151Z" fill="url(#paint13_linear_20:10)"/>
<path d="M66.2522 200.417C68.1234 198.078 69.6478 194.103 71.7289 187.552C69.3284 190.927 66.912 193.829 64.4939 196.196C64.4939 196.209 64.4939 196.209 64.4811 196.217C65.0087 197.835 65.5877 199.264 66.2475 200.417" fill="#079AE1"/>
<path d="M66.2522 200.417C65.6149 201.213 64.9407 201.819 64.1905 202.268C64.026 202.366 63.8599 202.458 63.6904 202.542C64.4826 202.98 65.3471 203.272 66.315 203.39C66.4568 203.404 66.5972 203.417 66.7441 203.428H66.77C66.8358 203.428 66.9055 203.428 66.9765 203.441H67.0049H67.2163H67.4438H67.5149H67.6762C67.702 203.441 67.729 203.441 67.7549 203.428C67.8052 203.428 67.8581 203.428 67.9097 203.415H67.9279H67.986C68.0389 203.415 68.097 203.402 68.1538 203.396H68.1666C68.1835 203.396 68.2014 203.383 68.2182 203.383C68.2775 203.37 68.3395 203.364 68.3973 203.355H68.4502C68.516 203.342 68.5841 203.334 68.6518 203.321H68.6646H68.6841C68.8196 203.294 68.9519 203.268 69.0857 203.234C67.9758 202.817 67.0467 201.837 66.2465 200.439" fill="#1969BC"/>
<path d="M50.3945 203.441C51.1996 203.441 52.0126 203.36 52.8289 203.2C53.5838 203.06 54.3404 202.845 55.0985 202.574C55.7293 202.889 56.3907 203.124 57.0908 203.269C57.6344 203.383 58.199 203.441 58.7911 203.441H50.3945Z" fill="#1E5CB3"/>
<path d="M58.7913 203.441C60.7787 203.441 62.3532 203.2 63.6905 202.543C64.4825 202.98 65.3472 203.272 66.315 203.39C66.457 203.404 66.5974 203.418 66.7442 203.428H66.7701C66.8359 203.428 66.9056 203.428 66.9766 203.441H67.0063H67.2177H58.7856L58.7913 203.441Z" fill="#1E5CB3"/>
<path d="M67.2227 203.441H67.4517H67.5227H67.6825C67.7096 203.441 67.7354 203.441 67.7612 203.428C67.8115 203.428 67.8644 203.428 67.9177 203.415H67.9347H67.994C68.0469 203.415 68.105 203.402 68.1602 203.396H68.1743C68.1912 203.396 68.2078 203.383 68.2246 203.383C68.284 203.37 68.346 203.365 68.4036 203.356C68.4231 203.356 68.4385 203.356 68.4591 203.342C68.5249 203.329 68.5931 203.323 68.6608 203.309H68.6736H68.6931C68.8286 203.283 68.9609 203.257 69.0947 203.222C69.4834 203.369 69.8884 203.444 70.3254 203.444L67.2251 203.457L67.2227 203.441Z" fill="#1D60B5"/>
<path d="M64.4862 196.217V196.204C63.6006 197.071 62.7166 197.865 61.8341 198.584C61.3727 198.959 60.9131 199.314 60.4485 199.649C60.8372 200.125 61.2325 200.571 61.6487 200.977C62.281 201.604 62.9569 202.133 63.6941 202.541C63.8619 202.456 64.0297 202.364 64.1926 202.267C64.9443 201.817 65.6186 201.211 66.2559 200.415C65.596 199.263 65.0169 197.834 64.4894 196.216" fill="#175FAB"/>
<path d="M90.8201 163.583H86.6355H86.2193H85.8257H85.8104C85.5394 163.596 85.2765 163.606 85.0167 163.623C84.8941 163.892 84.7683 164.162 84.6472 164.432C80.4999 173.476 76.1443 181.312 71.7227 187.542C69.6433 194.093 68.1173 198.068 66.246 200.407C67.0461 201.804 67.9769 202.787 69.0836 203.203C69.1158 203.19 69.1416 203.19 69.1707 203.183H69.1886C69.2081 203.183 69.2288 203.17 69.2499 203.17C69.295 203.157 69.3435 203.148 69.3886 203.134C69.4177 203.121 69.4418 203.12 69.471 203.11C69.5129 203.097 69.5564 203.088 69.5951 203.077C69.621 203.064 69.6467 203.06 69.6725 203.055C69.7371 203.033 69.7951 203.018 69.8564 202.998C69.8855 202.985 69.9162 202.974 69.9484 202.966C69.9839 202.953 70.0194 202.943 70.0517 202.928C70.0888 202.915 70.1259 202.908 70.1582 202.893C70.1872 202.88 70.2178 202.872 70.2453 202.86C70.3178 202.834 70.3888 202.811 70.4614 202.782C70.4809 202.782 70.5001 202.764 70.5212 202.76C70.5647 202.741 70.6099 202.727 70.6535 202.707C70.6694 202.694 70.6889 202.693 70.7098 202.686C70.8615 202.621 71.0179 202.555 71.1744 202.483H71.1907C71.4133 202.382 71.6392 202.269 71.8634 202.152C79.0533 198.04 82.6829 184.224 93.9686 163.585H90.8164L90.8201 163.583Z" fill="url(#paint14_linear_20:10)"/>
<path d="M28.4091 164.49C28.427 164.49 28.443 164.49 28.4607 164.503C28.5042 164.503 28.5478 164.503 28.5913 164.518H28.635C28.714 164.531 28.793 164.538 28.8737 164.55C28.8884 164.55 28.9012 164.55 28.914 164.563C28.98 164.576 29.0479 164.587 29.1156 164.597C29.1303 164.597 29.1496 164.61 29.1657 164.61C29.3206 164.642 29.4787 164.675 29.6303 164.716C29.6447 164.716 29.6594 164.729 29.6722 164.729C29.7368 164.745 29.7948 164.765 29.8593 164.783C29.8788 164.783 29.8931 164.796 29.911 164.799C29.9868 164.819 30.0578 164.839 30.132 164.864C30.1352 164.864 30.1397 164.864 30.1483 164.877C30.2111 164.897 30.2757 164.922 30.3418 164.944C30.3677 164.957 30.3918 164.963 30.416 164.969C30.4612 164.989 30.5113 165.009 30.5548 165.028C30.5807 165.028 30.6064 165.046 30.6338 165.055C30.6934 165.083 30.7564 165.108 30.8177 165.135C30.8499 165.148 30.8773 165.163 30.908 165.174C30.9435 165.193 30.9805 165.21 31.0193 165.223C31.0515 165.239 31.087 165.256 31.1176 165.271C31.1515 165.289 31.1837 165.304 31.2161 165.322C32.0162 165.725 32.7534 166.262 33.4358 166.913C33.6874 166.642 33.9504 166.399 34.223 166.181C32.7308 165.098 31.0402 164.48 29.0899 164.48C28.864 164.48 28.6382 164.493 28.4092 164.51" fill="#7DCBEC"/>
<path d="M33.436 166.894C33.8539 167.291 34.2539 167.736 34.633 168.215C34.9992 167.954 35.3622 167.703 35.7268 167.468C35.2493 166.979 34.746 166.54 34.2217 166.162C33.949 166.378 33.6877 166.623 33.436 166.894Z" fill="#5EC5ED"/>
<path d="M28.4088 164.49C28.6378 164.47 28.8637 164.462 29.0895 164.462C31.0398 164.462 32.7304 165.08 34.2226 166.161C35.797 164.89 37.7005 164.446 40.3445 164.446H27.5409C27.8361 164.446 28.1249 164.464 28.4088 164.49Z" fill="url(#paint15_linear_20:10)"/>
<path d="M40.3444 164.446C37.7005 164.446 35.797 164.89 34.2225 166.162C34.7452 166.54 35.2485 166.979 35.726 167.468C37.9183 166.041 40.0895 165.096 42.2302 164.683C43.0464 164.527 43.8611 164.446 44.6644 164.446H40.3444Z" fill="url(#paint16_linear_20:10)"/>
<path d="M71.7283 187.555C72.8655 183.965 74.1673 179.606 75.7821 174.32C77.2372 169.557 79.8134 165.996 84.6512 164.442C84.779 164.176 84.8997 163.902 85.0239 163.633C77.1372 164.117 73.4511 168.224 71.596 174.307C68.3519 184.926 66.3871 191.809 64.4949 196.195C66.9114 193.831 69.3279 190.927 71.7283 187.555Z" fill="url(#paint17_linear_20:10)"/>
<path d="M218.729 155.018C202.521 155.018 203.533 161.964 203.533 161.964L203.551 169.16H219.018V171.321H197.408C197.408 171.321 187.036 170.158 187.036 186.32C187.036 202.482 196.089 201.909 196.089 201.909H201.491V194.409C201.491 194.409 201.2 185.463 210.399 185.463H225.74C225.74 185.463 234.359 185.601 234.359 177.231V163.392C234.359 163.392 235.667 155.018 218.729 155.018ZM210.2 159.857C211.739 159.857 212.983 161.086 212.983 162.607C212.983 164.128 211.739 165.357 210.2 165.357C208.662 165.357 207.418 164.128 207.418 162.607C207.418 161.086 208.662 159.857 210.2 159.857Z" fill="url(#paint18_linear_20:10)"/>
<path d="M219.189 217.784C235.397 217.784 234.385 210.838 234.385 210.838L234.367 203.642H218.9V201.481H240.511C240.511 201.481 250.882 202.644 250.882 186.482C250.882 170.32 241.83 170.893 241.83 170.893H236.427V178.393C236.427 178.393 236.718 187.339 227.519 187.339H212.179C212.179 187.339 203.56 187.201 203.56 195.571V209.41C203.56 209.41 202.251 217.784 219.189 217.784ZM227.718 212.945C226.179 212.945 224.935 211.716 224.935 210.195C224.935 208.674 226.179 207.445 227.718 207.445C229.257 207.445 230.5 208.674 230.5 210.195C230.5 211.716 229.257 212.945 227.718 212.945Z" fill="url(#paint19_linear_20:10)"/>
<path d="M51 99.0815V142.08" stroke="#2F3538" stroke-width="2"/>
<circle cx="51" cy="96" r="4" fill="#2F3538"/>
<path d="M120 186.102H162" stroke="#2F3538" stroke-width="2"/>
<circle cx="162" cy="186" r="4" fill="#2F3538"/>
<path d="M51 220.91L51 263.908" stroke="#2F3538" stroke-width="2"/>
<circle cx="51" cy="267" r="4" fill="#2F3538"/>
<defs>
<linearGradient id="paint0_linear_20:10" x1="43.8333" y1="164.186" x2="43.8333" y2="213.171" gradientUnits="userSpaceOnUse">
<stop stop-color="#0994DC"/>
<stop offset="0.350006" stop-color="#66CEF5"/>
<stop offset="0.846161" stop-color="#127BCA"/>
<stop offset="1" stop-color="#127BCA"/>
</linearGradient>
<linearGradient id="paint1_linear_20:10" x1="45.6576" y1="162.945" x2="45.6576" y2="213.179" gradientUnits="userSpaceOnUse">
<stop stop-color="#0E76BC"/>
<stop offset="0.360001" stop-color="#36AEE8"/>
<stop offset="0.846161" stop-color="#00ADEF"/>
<stop offset="1" stop-color="#00ADEF"/>
</linearGradient>
<linearGradient id="paint2_linear_20:10" x1="55.5193" y1="202.312" x2="55.5193" y2="162.342" gradientUnits="userSpaceOnUse">
<stop stop-color="#1C63B7"/>
<stop offset="0.5" stop-color="#33BDF2"/>
<stop offset="1" stop-color="#33BDF2" stop-opacity="0.419608"/>
</linearGradient>
<linearGradient id="paint3_linear_20:10" x1="52.953" y1="157.856" x2="52.953" y2="210.011" gradientUnits="userSpaceOnUse">
<stop stop-color="#166AB8"/>
<stop offset="0.399994" stop-color="#36AEE8"/>
<stop offset="0.846161" stop-color="#0798DD"/>
<stop offset="1" stop-color="#0798DD"/>
</linearGradient>
<linearGradient id="paint4_linear_20:10" x1="48.9375" y1="158.13" x2="48.9375" y2="213.59" gradientUnits="userSpaceOnUse">
<stop stop-color="#124379"/>
<stop offset="0.389999" stop-color="#1487CB"/>
<stop offset="0.780228" stop-color="#165197"/>
<stop offset="1" stop-color="#165197"/>
</linearGradient>
<linearGradient id="paint5_linear_20:10" x1="27.1795" y1="175.155" x2="34.8386" y2="175.155" gradientUnits="userSpaceOnUse">
<stop stop-color="#33BDF2" stop-opacity="0.698039"/>
<stop offset="1" stop-color="#1DACD8"/>
</linearGradient>
<linearGradient id="paint6_linear_20:10" x1="84.7025" y1="201.31" x2="84.7025" y2="162.374" gradientUnits="userSpaceOnUse">
<stop stop-color="#136AB4"/>
<stop offset="0.6" stop-color="#59CAF5" stop-opacity="0.54902"/>
<stop offset="1" stop-color="#59CAF5" stop-opacity="0.235294"/>
</linearGradient>
<linearGradient id="paint7_linear_20:10" x1="-0.000216154" y1="184.459" x2="28.409" y2="184.459" gradientUnits="userSpaceOnUse">
<stop stop-color="#05A1E6" stop-opacity="0.247059"/>
<stop offset="1" stop-color="#05A1E6"/>
</linearGradient>
<linearGradient id="paint8_linear_20:10" x1="15.7339" y1="202.291" x2="15.7339" y2="162.423" gradientUnits="userSpaceOnUse">
<stop stop-color="#318ED5"/>
<stop offset="1" stop-color="#38A7E4"/>
</linearGradient>
<linearGradient id="paint9_linear_20:10" x1="18.1852" y1="202.431" x2="18.1852" y2="163.677" gradientUnits="userSpaceOnUse">
<stop stop-color="#05A1E6"/>
<stop offset="1" stop-color="#05A1E6" stop-opacity="0.54902"/>
</linearGradient>
<linearGradient id="paint10_linear_20:10" x1="20.2205" y1="204.409" x2="20.2205" y2="171.661" gradientUnits="userSpaceOnUse">
<stop stop-color="#1959A6"/>
<stop offset="0.5" stop-color="#05A1E6"/>
<stop offset="0.917587" stop-color="#7EC5EA"/>
<stop offset="1" stop-color="#7EC5EA"/>
</linearGradient>
<linearGradient id="paint11_linear_20:10" x1="21.4461" y1="202.317" x2="10.1342" y2="168.55" gradientUnits="userSpaceOnUse">
<stop stop-color="#165096"/>
<stop offset="1" stop-color="#0D82CA"/>
</linearGradient>
<linearGradient id="paint12_linear_20:10" x1="78.19" y1="182.236" x2="78.19" y2="163.68" gradientUnits="userSpaceOnUse">
<stop stop-color="#05A1E6"/>
<stop offset="0.873627" stop-color="#0495D6"/>
<stop offset="1" stop-color="#0495D6"/>
</linearGradient>
<linearGradient id="paint13_linear_20:10" x1="86.7094" y1="161.965" x2="69.1466" y2="200.054" gradientUnits="userSpaceOnUse">
<stop stop-color="#38A7E4" stop-opacity="0.329412"/>
<stop offset="0.961533" stop-color="#0E88D3"/>
<stop offset="1" stop-color="#0E88D3"/>
</linearGradient>
<linearGradient id="paint14_linear_20:10" x1="80.1119" y1="163.466" x2="80.1119" y2="203.948" gradientUnits="userSpaceOnUse">
<stop stop-color="#168CD4"/>
<stop offset="0.5" stop-color="#1C87CC"/>
<stop offset="1" stop-color="#154B8D"/>
</linearGradient>
<linearGradient id="paint15_linear_20:10" x1="29.6757" y1="162.634" x2="29.8553" y2="166.879" gradientUnits="userSpaceOnUse">
<stop stop-color="#97D6EE"/>
<stop offset="0.703293" stop-color="#55C1EA"/>
<stop offset="1" stop-color="#55C1EA"/>
</linearGradient>
<linearGradient id="paint16_linear_20:10" x1="34.942" y1="167.277" x2="35.7526" y2="162.787" gradientUnits="userSpaceOnUse">
<stop stop-color="#7ACCEC"/>
<stop offset="1" stop-color="#3FB7ED"/>
</linearGradient>
<linearGradient id="paint17_linear_20:10" x1="74.7587" y1="165.705" x2="74.7587" y2="205.3" gradientUnits="userSpaceOnUse">
<stop stop-color="#1DA7E7"/>
<stop offset="1" stop-color="#37ABE7" stop-opacity="0"/>
</linearGradient>
<linearGradient id="paint18_linear_20:10" x1="193.172" y1="160.664" x2="224.441" y2="191.989" gradientUnits="userSpaceOnUse">
<stop stop-color="#387EB8"/>
<stop offset="1" stop-color="#366994"/>
</linearGradient>
<linearGradient id="paint19_linear_20:10" x1="212.592" y1="180.541" x2="246.19" y2="212.68" gradientUnits="userSpaceOnUse">
<stop stop-color="#FFE052"/>
<stop offset="1" stop-color="#FFC331"/>
</linearGradient>
</defs>
</svg>
